# xmcd
#
# Track frame offsets: 
#        150
#        20035
#        39531
#        61404
#        74663
#        95583
#        120379
#        144555
#        164743
#        184921
#        199861
#        220090
#
# Disc length: 3165 seconds
#
# Revision: 0
# Processed by: cddbd v1.5.2PL0 Copyright (c) Steve Scherf et al.
# Submitted via: ExactAudioCopy v0.99pb3
#
DISCID=bb0c5b0c
DTITLE=Vanou - Oups !
DYEAR=2009
DGENRE=Chanson
TTITLE0=Blonde 2
TTITLE1=Dans ta poussette
TTITLE2=Loulou
TTITLE3=Mauvaise
TTITLE4=Ginette
TTITLE5=Paris misere
TTITLE6=J'aime pas ta blonde
TTITLE7=Pourquoi
TTITLE8=J'sais po ce qui
TTITLE9=Po mieux
TTITLE10=J'ai soif
TTITLE11=Pourtant
EXTD=
EXTT0=
EXTT1=
EXTT2=
EXTT3=
EXTT4=
EXTT5=
EXTT6=
EXTT7=
EXTT8=
EXTT9=
EXTT10=
EXTT11=
PLAYORDER=
